 http://img689.imageshack.us/img689/2633/theadventuresoftintin.jpg


Verenigde Staten / Nieuw-Zeeland
Animatie / Avontuur
107 minuten

geregisseerd door Steven Spielberg
met Jamie Bell, Andy Serkis en Daniel Craig

De nieuwsgierige reporter Kuifje en zijn trouwe hondje Bobbie ontdekken dat een model van het prachtige oude zeilschip 'De Eenhoorn' een geheim met zich meedraagt. Meegevoerd in een eeuwenoud mysterie, krijgt hij het aan de stok met de boosaardige Sacharin, die weet dat Kuifje een belangrijke aanwijzing bezit naar de grote schat van de snode piraat Scharlaken Rackham. Geholpen door de moedige Bobbie, de onstuimige kapitein Haddock en de stuntelige detectives Jansen en Janssen, reist Kuifje de halve wereld af, constant op de hielen gezeten door de vijand. Hij moet slimmer en sneller zijn dan de rest om het Geheim van de Eenhoorn te ontrafelen...



Vertaald door Simply ReleaseS Toppers
Tokke en Suurtje





Screenshots:
 
http://img256.imageshack.us/img256/4531/screenshot1cr.jpg
 
http://img843.imageshack.us/img843/1224/screenshot2ba.jpg
 
http://img148.imageshack.us/img148/885/screenshot3da.jpg
 
http://img402.imageshack.us/img402/4478/screenshot4ew.jpg



INFO;


Format                                   : AVI
Format/Info                              : Audio Video Interleave
File size                                : 705 MiB
Duration                                 : 1h 39mn
Overall bit rate mode                    : Variable
Overall bit rate                         : 990 Kbps
Writing application                      : VirtualDubMod 1.5.4.1 (build 2178/release)
Writing library                          : VirtualDubMod build 2178/release

Video
ID                                       : 0
Format                                   : MPEG-4 Visual
Format profile                           : Advanced Simple@L5
Format settings, BVOP                    : 1
Format settings, QPel                    : No
Format settings, GMC                     : No warppoints
Format settings, Matrix                  : Custom
Codec ID                                 : XVID
Codec ID/Hint                            : XviD
Duration                                 : 1h 39mn
Bit rate                                 : 875 Kbps
Width                                    : 656 pixels
Height                                   : 288 pixels
Display aspect ratio                     : 2.25:1
Frame rate                               : 25.000 fps
Color space                              : YUV
Chroma subsampling                       : 4:2:0
Bit depth                                : 8 bits
Scan type                                : Progressive
Compression mode                         : Lossy
Bits/(Pixel*Frame)                       : 0.185
Stream size                              : 624 MiB (88%)
Writing library                          : XviD 64

Audio
ID                                       : 1
Format                                   : MPEG Audio
Format version                           : Version 1
Format profile                           : Layer 3
Mode                                     : Joint stereo
Mode extension                           : MS Stereo
Codec ID                                 : 55
Codec ID/Hint                            : MP3
Duration                                 : 1h 39mn
Bit rate mode                            : Variable
Bit rate                                 : 102 Kbps
Nominal bit rate                         : 128 Kbps
Channel(s)                               : 2 channels
Sampling rate                            : 48.0 KHz
Compression mode                         : Lossy
Stream size                              : 72.3 MiB (10%)
Alignment                                : Aligned on interleaves
Interleave, duration                     : 24 ms (0.60 video frame)
Interleave, preload duration             : 510 ms



 
http://www.imdb.com/title/tt0983193/ 
http://www.moviemeter.nl/film/71340




Deze film wordt u aangeboden door het DutchReleaseTeam.
Voor de reviews van de nieuwste films, muziek, series, games etc
ga dan eens naar http://www.hetmultimediacafe.be

DutchReleaseteam = Hardcoded Dutch Subs